<svg width="207" height="31" viewBox="0 0 207 31" fill="none" xmlns="http://www.w3.org/2000/svg">
<g clip-path="url(#clip0_0_1786)">
<path d="M106.302 8.295V28.6265H101.47V9.17646C101.47 8.66207 101.263 8.16875 100.894 7.80502C100.525 7.4413 100.024 7.23696 99.5025 7.23696H79.775V2.47503H100.404C101.969 2.47695 103.469 3.09097 104.575 4.18222C105.681 5.27346 106.302 6.7527 106.302 8.295ZM113.533 17.9288H140.056V13.1655H113.533V17.9288ZM113.533 28.6193H140.056V23.8574H113.533V28.6193ZM113.533 7.23696H140.056V2.47503H113.533V7.23696ZM78.9937 18.929L71.2807 5.16429C70.7007 4.16222 69.8605 3.33031 68.8465 2.75394C67.8325 2.17757 66.6812 1.87749 65.5107 1.88449C64.34 1.87773 63.1887 2.17825 62.1749 2.75516C61.1611 3.33208 60.3214 4.16459 59.7421 5.16718L46.5982 28.615H52.0467L63.882 7.49749C64.0494 7.21844 64.2878 6.98722 64.5735 6.8266C64.8592 6.66597 65.1825 6.5815 65.5114 6.5815C65.8403 6.5815 66.1636 6.66597 66.4493 6.8266C66.735 6.98722 66.9734 7.21844 67.1408 7.49749L74.7437 21.0639C74.9096 21.3475 74.9969 21.6691 74.9968 21.9964C74.9968 22.3238 74.9093 22.6454 74.7432 22.9289C74.5772 23.2124 74.3383 23.4478 74.0507 23.6115C73.7631 23.7753 73.4369 23.8616 73.1047 23.8617H58.0297V28.5686H73.1018C74.2509 28.5691 75.3806 28.2767 76.3811 27.7197C77.3816 27.1627 78.2189 26.36 78.8116 25.3898C79.4044 24.4196 79.7324 23.3147 79.7638 22.1826C79.7952 21.0505 79.5289 19.9297 78.9908 18.929H78.9937ZM147.293 8.2921V28.6265H152.125V9.17646C152.125 8.92164 152.176 8.66932 152.275 8.43391C152.374 8.1985 152.519 7.98463 152.702 7.80451C152.885 7.62439 153.102 7.48156 153.341 7.38418C153.58 7.28679 153.836 7.23676 154.094 7.23696H173.822V2.47503H153.198C151.632 2.47503 150.13 3.0882 149.023 4.17966C147.915 5.27112 147.293 6.75145 147.293 8.295V8.2921ZM188.086 6.58273C188.416 6.57955 188.74 6.66269 189.027 6.82366C189.313 6.98463 189.551 7.21766 189.716 7.49893L201.55 28.6265H206.999L193.856 5.17876C193.277 4.17606 192.437 3.34349 191.423 2.76657C190.409 2.18966 189.257 1.88921 188.086 1.89607C186.915 1.88921 185.764 2.18966 184.75 2.76657C183.736 3.34349 182.896 4.17606 182.316 5.17876L174.602 18.929C174.065 19.9297 173.8 21.0501 173.832 22.1816C173.864 23.313 174.193 24.417 174.785 25.3865C175.378 26.356 176.215 27.1581 177.215 27.7148C178.215 28.2716 179.344 28.5642 180.492 28.5643H195.569V23.8675H180.495C180.163 23.8676 179.836 23.7815 179.548 23.6179C179.261 23.4542 179.022 23.2188 178.855 22.9353C178.689 22.6517 178.602 22.3301 178.601 22.0026C178.601 21.6751 178.689 21.3534 178.855 21.0697L186.463 7.50183C186.628 7.22143 186.864 6.98893 187.149 6.82799C187.434 6.66706 187.758 6.58343 188.086 6.58563V6.58273ZM32.2692 18.8856C32.9599 20.0634 33.3236 21.3996 33.3239 22.76C33.3243 24.1203 32.9611 25.4567 32.271 26.6348C31.5809 27.8129 30.5881 28.7912 29.3927 29.4711C28.1972 30.151 26.8411 30.5087 25.4609 30.5081H7.87162C6.49149 30.5084 5.13561 30.1506 3.94034 29.4705C2.74507 28.7905 1.75256 27.8123 1.06262 26.6342C0.37268 25.4562 0.00963986 24.1198 0.01001 22.7596C0.0103802 21.3994 0.374148 20.0633 1.06473 18.8856L9.86009 3.87611C10.5497 2.69845 11.5418 1.72048 12.7365 1.04053C13.9313 0.360579 15.2866 0.00260925 16.6662 0.00260925C18.0459 0.00260925 19.4012 0.360579 20.596 1.04053C21.7907 1.72048 22.7828 2.69845 23.4724 3.87611L32.2692 18.8856ZM9.30643 9.10843L11.9954 13.7068C12.1547 13.9785 12.3839 14.2041 12.6597 14.3608C12.9355 14.5176 13.2484 14.6 13.5668 14.5998H19.8494C20.1678 14.5999 20.4806 14.5174 20.7564 14.3606C21.0322 14.2039 21.2613 13.9784 21.4208 13.7068L24.1024 9.1258L21.3121 4.35954L17.7581 10.4256C17.652 10.6071 17.4992 10.7579 17.3151 10.8628C17.131 10.9677 16.9222 11.0229 16.7096 11.0229C16.497 11.0229 16.2881 10.9677 16.104 10.8628C15.9199 10.7579 15.7671 10.6071 15.661 10.4256L12.0953 4.34651L9.30643 9.10843ZM15.5714 22.0481L12.436 16.6855C12.2771 16.4137 12.0483 16.1879 11.7727 16.0308C11.4971 15.8738 11.1844 15.7911 10.8661 15.7911H5.47048L2.68017 20.5588H9.81015C10.0227 20.559 10.2314 20.6142 10.4154 20.719C10.5994 20.8239 10.7521 20.9745 10.8584 21.1559C10.9646 21.3373 11.0206 21.5431 11.0206 21.7525C11.0207 21.962 10.9648 22.1677 10.8587 22.3492L7.30475 28.4152H12.8854L15.5685 23.8357C15.7277 23.564 15.8117 23.256 15.8123 22.9423C15.8128 22.6286 15.7297 22.3203 15.5714 22.0481ZM23.5972 20.5588H30.7257L27.9354 15.7911H22.5443C22.2259 15.7911 21.9132 15.8738 21.6376 16.0308C21.362 16.1879 21.1333 16.4137 20.9743 16.6855L17.833 22.0481C17.6736 22.3198 17.5896 22.6281 17.5896 22.9419C17.5896 23.2557 17.6736 23.564 17.833 23.8357L20.5132 28.4152H26.0938L22.5399 22.3492C22.4333 22.1671 22.3775 21.9605 22.3779 21.7503C22.3784 21.5401 22.4351 21.3338 22.5424 21.1522C22.6497 20.9705 22.8037 20.82 22.9889 20.7158C23.1741 20.6116 23.384 20.5574 23.5972 20.5588Z" fill="#1A1A1A"/>
</g>
<defs>
<clipPath id="clip0_0_1786">
<rect width="207" height="30.5053" fill="white"/>
</clipPath>
</defs>
</svg>
